<?xml version="1.0" encoding="UTF-8" standalone="no" ?>
<!DOCTYPE svg PUBLIC "-//W3C//DTD SVG 1.1//EN" "http://www.w3.org/Graphics/SVG/1.1/DTD/svg11.dtd">
<svg xmlns="http://www.w3.org/2000/svg" xmlns:xlink="http://www.w3.org/1999/xlink" version="1.1" width="1080" height="1080" viewBox="0 0 1080 1080" xml:space="preserve">
<desc>Created with Fabric.js 5.2.4</desc>
<defs>
</defs>
<g transform="matrix(1 0 0 1 540 540)" id="d2b1b342-2046-4bc1-bae5-04ae2b43698f"  >
<rect style="stroke: none; stroke-width: 1; stroke-dasharray: none; stroke-linecap: butt; stroke-dashoffset: 0; stroke-linejoin: miter; stroke-miterlimit: 4; fill: rgb(255,255,255); fill-rule: nonzero; opacity: 1; visibility: hidden;" vector-effect="non-scaling-stroke"  x="-540" y="-540" rx="0" ry="0" width="1080" height="1080" />
</g>
<g transform="matrix(1 0 0 1 540 540)" id="79f1f12d-27ae-4eb9-9153-cb7d43b931c1"  >
</g>
<g transform="matrix(5.69 0 0 5.69 217.6 503.24)" id="bdd3aa41-e288-4f42-b960-08aca89a589e"  >
<polygon style="stroke: rgb(0,0,0); stroke-width: 0; stroke-dasharray: none; stroke-linecap: butt; stroke-dashoffset: 0; stroke-linejoin: miter; stroke-miterlimit: 4; fill: rgb(172,106,255); fill-rule: nonzero; opacity: 1;" vector-effect="non-scaling-stroke"  points="15.21,-8.5 15.21,-13.71 5.59,-20 5.59,-15.98 11.93,-11.8 11.94,-8.6 8.99,-6.6 6.98,-8.07 6.98,-10.55 3.7,-12.8 3.7,-8.27 -1.5,-5.09 -1.5,3.34 -5.18,5.4 -7.06,3.93 -7.06,1.49 -4.83,-0.04 -4.83,-0.06 -4.83,-3.83 -8.85,-1.15 -11.92,-3.14 -14.72,-1.31 -10.34,1.69 -10.34,3.54 -13.5,5.67 -16.72,3.49 -16.72,-3.77 -11.94,-7.01 -11.93,-10.13 -5.8,-6.17 -0.64,-9.61 -3.78,-11.44 -5.84,-10.05 -10.32,-13.02 -5.27,-15.96 -0.89,-13.4 -0.89,-17.22 -5.26,-19.79 -15.21,-13.99 -15.21,-8.78 -20,-5.54 -20,5.26 -15.21,8.5 -15.21,13.71 -5.59,20 -5.59,15.98 -11.93,11.8 -11.94,8.6 -8.99,6.61 -6.98,8.07 -6.98,10.56 -3.7,12.8 -3.7,8.27 1.57,5.09 1.63,-3.33 5.18,-5.4 7.06,-3.92 7.06,-1.49 4.83,0.04 4.83,0.06 4.83,3.84 8.85,1.15 11.92,3.15 14.72,1.31 10.34,-1.69 10.34,-3.53 13.5,-5.67 16.72,-3.49 16.72,3.77 11.94,7.01 11.93,10.13 5.8,6.17 0.64,9.58 3.78,11.42 5.84,10.05 10.32,13.02 5.27,15.97 0.89,13.4 0.89,17.22 5.26,19.79 15.21,14 15.21,8.78 20,5.54 20,-5.26 " />
</g>
<g transform="matrix(1.3 0 0 1.3 594.49 503.73)" style="" id="2cd45f10-5804-4771-bf0b-54568c7d4b08"  >
		<text xml:space="preserve" font-family="Raleway" font-size="145" font-style="normal" font-weight="900" style="stroke: none; stroke-width: 1; stroke-dasharray: none; stroke-linecap: butt; stroke-dashoffset: 0; stroke-linejoin: miter; stroke-miterlimit: 4; fill: rgb(255,255,255); fill-rule: nonzero; opacity: 1; white-space: pre;" ><tspan x="-177.12" y="45.55" >myAI</tspan></text>
</g>
</svg>